Coordinates
version=1
nRows=11
nColumns=36
inDegrees=yes

Units are S.I. units (second, meters, Newtons, ...)
If the header above contains a line with 'inDegrees', this indicates whether rotational values are in degrees (yes) or radians (no).

endheader
time	pelvis_tilt	pelvis_list	pelvis_rotation	pelvis_tx	pelvis_ty	pelvis_tz	hip_flexion_r	hip_adduction_r	hip_rotation_r	knee_angle_r	knee_angle_r_beta	ankle_angle_r	subtalar_angle_r	mtp_angle_r	hip_flexion_l	hip_adduction_l	hip_rotation_l	knee_angle_l	knee_angle_l_beta	ankle_angle_l	subtalar_angle_l	mtp_angle_l	lumbar_extension	lumbar_bending	lumbar_rotation	arm_flex_r	arm_add_r	arm_rot_r	elbow_flex_r	pro_sup_r	arm_flex_l	arm_add_l	arm_rot_l	elbow_flex_l	pro_sup_l
      0.00000000	     -6.42966971	     -1.40803939	     -5.27187218	      0.68678364	      1.31221582	     -0.02675227	      6.40317906	      1.98085492	     -0.89648840	      1.91470817	      0.03341796	      1.79928406	     -2.40969692	     -6.11381480	      7.65111718	     -0.95004006	      4.40214431	      3.56637950	      0.06224506	      6.03629707	     -0.84841414	     -6.11381480	     -0.07911628	      1.14062722	     -0.65492248	      1.64229906	     -9.77106278	      2.98751695	     23.18196071	     92.56762990	     -1.97671947	     -9.19297623	      2.96410242	     18.92814360	     89.93086356
      0.01666670	     -7.36807886	     -1.44319658	     -5.92575334	      0.68739708	      1.30990910	     -0.02676978	      6.90770017	      2.32882553	      0.14116885	      0.90622337	      0.01581658	      3.35321401	     -0.52820855	     -6.48250041	      8.42196181	     -1.04704553	      4.47582914	      3.13233097	      0.05466949	      5.64211510	     -1.76766012	     -6.48250041	      0.52038092	      1.02506808	      0.11578260	      1.32100521	     -9.98455007	      4.35571057	     22.74616692	     92.38495853	     -1.99039080	     -8.82901440	      4.80773042	     18.55589940	     90.07122402
      0.03333330	     -8.13143216	     -1.33188566	     -6.41598304	      0.69318214	      1.30942266	     -0.02165058	      7.40555375	      2.48613894	      0.20188612	      0.61022844	      0.01065050	      3.30538603	     -0.09589729	     -6.52557044	      8.65174324	     -1.26189330	      4.87498018	      2.01611122	      0.03518778	      5.64326153	     -1.34311782	     -6.52557044	      1.36422833	      0.85656317	      0.39878919	      1.19126028	     -9.86691418	      4.85571366	     22.32755836	     93.13262694	     -1.60810508	     -8.73040243	      5.16931707	     17.69563250	     90.76211272
      0.05000000	     -8.31550222	     -1.22393592	     -6.35970801	      0.68563622	      1.30897889	     -0.02660499	      7.68225302	      2.31205245	      0.11386420	      0.69089712	      0.01205843	      3.30356965	      0.03076191	     -6.52725480	      8.94230589	     -1.17272618	      5.00248264	      1.82303425	      0.03181795	      5.80062360	     -1.20267433	     -6.52725480	      1.19841816	      0.77963966	      0.20071980	      1.38287224	     -9.84050044	      4.87127367	     22.38382063	     93.16444701	     -1.17174957	     -8.70281948	      5.20921978	     17.80907376	     90.80356452
      0.06666670	     -8.62272505	     -1.03279964	     -6.40591204	      0.69198885	      1.30817532	     -0.02228254	      7.97823000	      2.16014425	     -0.89239137	      0.98380188	      0.01717058	      4.40861654	      1.76567954	     -6.55505941	      9.33363792	     -1.06059749	      4.49466941	      2.05744278	      0.03590915	      6.59561653	      0.36163210	     -6.55505941	      1.76081711	      0.52996445	     -0.38499234	      1.68461694	     -9.59155046	      5.40216851	     21.97985913	     93.84277098	     -0.95809331	     -8.77391440	      6.03928694	     16.92560054	     91.63865999
      0.08333330	     -8.70067591	     -0.87375572	     -6.70262536	      0.69210801	      1.30502527	     -0.02220686	      8.13551504	      2.05203493	     -0.95047722	      1.30845041	      0.02283677	      4.93243982	      2.14192240	     -6.59257962	      9.38886945	     -0.97231127	      4.04796221	      2.18607889	      0.03815427	      6.95757804	      1.28291234	     -6.59257962	      1.93491375	      0.26588729	     -0.37469199	      1.98809674	     -9.52182674	      6.44743303	     21.03295398	     95.12727017	     -0.40192418	     -8.91359345	      7.61348370	     15.72756793	     93.24844886
      0.10000000	     -8.73793028	     -0.72641827	     -6.97490429	      0.69167681	      1.30484243	     -0.02215392	      8.25499368	      1.96278743	     -0.86379283	      1.64496492	      0.02871005	      5.34412525	      2.13382426	     -6.94425733	      9.40149817	     -0.88927772	      3.71928512	      2.31267653	      0.04036382	      7.19348876	      1.76329816	     -6.94425733	      1.98044792	      0.05344398	     -0.20443426	      1.83779696	     -9.42838387	      6.38080515	     21.18790199	     96.79493476	     -0.06290163	     -9.12763533	      8.82886993	     15.33370724	     95.68340145
      0.11666670	     -8.74044921	     -0.58659540	     -7.16800002	      0.69160364	      1.30560450	     -0.02189965	      8.29595606	      1.85691670	     -0.58494630	      1.92668334	      0.03362697	      5.59699453	      1.79516605	     -7.05242174	      9.36403512	     -0.83344216	      3.16362239	      2.47787667	      0.04324711	      7.22994121	      2.32318637	     -7.05242174	      2.07525917	     -0.17383122	     -0.22762130	      1.83072821	     -9.24118079	      6.98755429	     20.61332152	     95.34385479	      0.30496156	     -9.23012391	      9.36544717	     14.83432965	     94.38817405
      0.13333330	     -8.72582957	     -0.47279401	     -7.32224580	      0.69124857	      1.30538972	     -0.02192004	      8.29046865	      1.76122514	     -0.36001623	      2.09296846	      0.03652919	      5.73689105	      1.58748091	     -7.18131223	      9.30052765	     -0.79109912	      2.79954562	      2.57684193	      0.04497438	      7.20847298	      2.61012672	     -7.18131223	      2.09849803	     -0.38178992	     -0.17155957	      1.68637999	     -9.09847808	      6.89845866	     20.79144017	     97.25988039	      0.55441469	     -9.41196823	      9.75812152	     14.70767378	     96.95656255
      0.15000000	     -8.79401686	     -0.40557665	     -7.34974960	      0.69131727	      1.30594178	     -0.02192658	      8.31724843	      1.71477370	     -0.03286632	      2.18872081	      0.03820038	      5.78586069	      1.17521237	     -7.24878761	      9.36915906	     -0.78354896	      2.63283426	      2.63910655	      0.04606110	      7.27032800	      2.91398276	     -7.24878761	      2.22305045	     -0.54393286	     -0.27512437	      1.65800250	     -8.94021656	      7.37842354	     20.28134851	     95.28841317	      0.93396257	     -9.49972583	     10.29888739	     14.16827314	     95.15001246
      0.16666670	     -8.79835344	     -0.35272440	     -7.35579474	      0.69078578	      1.30936022	     -0.02200230	      8.29757088	      1.67955836	      0.17579058	      2.27898683	      0.03977582	      5.90074324	      0.91489308	     -7.39627178	      9.35976993	     -0.77324986	      2.49643024	      2.65981630	      0.04642255	      7.27524213	      3.15385887	     -7.39627178	      2.17520582	     -0.69565025	     -0.18549764	      1.41965640	     -8.79280604	      6.47591716	     20.60424250	     98.46614311	      1.25926835	     -9.67087608	     10.35549401	     14.07648598	     98.89898763
